<svg width="256" height="256" viewBox="0 0 256 256" fill="none" xmlns="http://www.w3.org/2000/svg">
<rect width="256" height="256" fill="url(#paint0_linear_16_20)"/>
<path fill-rule="evenodd" clip-rule="evenodd" d="M68.207 189.06C71.343 192.196 75.7857 193.764 81.535 193.764C82.1456 193.764 82.7407 193.748 83.3203 193.715C83.8221 193.748 84.3341 193.764 84.8563 193.764C88.6456 193.764 91.9776 192.915 94.8523 191.216C97.7269 189.387 100.667 186.381 103.672 182.2L127.995 148.339L152.476 182.2C155.482 186.381 158.422 189.387 161.296 191.216C164.171 192.915 167.438 193.764 171.096 193.764C171.668 193.764 172.228 193.746 172.775 193.709C173.379 193.746 173.999 193.764 174.635 193.764C180.384 193.764 184.762 192.196 187.767 189.06C190.903 185.793 192.471 181.22 192.471 175.34V70.48C192.471 64.4694 190.903 59.896 187.767 56.76C184.762 53.624 180.384 52.056 174.635 52.056C173.817 52.056 173.025 52.0864 172.261 52.1471C171.567 52.0864 170.852 52.056 170.116 52.056C166.327 52.056 162.995 52.9707 160.12 54.8C157.246 56.4987 154.371 59.4387 151.496 63.62L127.996 96.0505L104.652 63.62C101.778 59.5694 98.9029 56.6294 96.0283 54.8C93.1536 52.9707 89.8216 52.056 86.0323 52.056C85.3107 52.056 84.6087 52.0869 83.9262 52.1487C83.1575 52.0869 82.3604 52.056 81.535 52.056C75.7857 52.056 71.343 53.624 68.207 56.76C65.071 59.896 63.503 64.4694 63.503 70.48V175.34C63.503 181.22 65.071 185.793 68.207 189.06Z" fill="url(#paint1_linear_16_20)"/>
<defs>
<linearGradient id="paint0_linear_16_20" x1="0" y1="0" x2="256" y2="256" gradientUnits="userSpaceOnUse">
<stop stop-color="white"/>
<stop offset="1" stop-color="#9A9A9A"/>
</linearGradient>
<linearGradient id="paint1_linear_16_20" x1="63.6875" y1="51.8907" x2="192.312" y2="193.531" gradientUnits="userSpaceOnUse">
<stop stop-color="#CA8AFF"/>
<stop offset="1" stop-color="#6F2CC7"/>
</linearGradient>
</defs>
</svg>
